<?xml version="1.0" standalone="no"?>
<!DOCTYPE svg PUBLIC "-//W3C//DTD SVG 20010904//EN"
 "http://www.w3.org/TR/2001/REC-SVG-20010904/DTD/svg10.dtd">
<svg version="1.0" xmlns="http://www.w3.org/2000/svg"
 width="700.000000pt" height="700.000000pt" viewBox="0 0 700.000000 700.000000"
 preserveAspectRatio="xMidYMid meet">
<metadata>
Created by potrace 1.14, written by Peter Selinger 2001-2017
</metadata>
<g transform="translate(0.000000,700.000000) scale(0.100000,-0.100000)"
fill="#000000" stroke="none">
<path d="M3215 6742 c-66 -12 -97 -26 -130 -59 -51 -51 -68 -89 -68 -153 0
-86 43 -158 118 -198 48 -26 150 -22 202 7 102 58 139 189 82 292 -38 68 -139
123 -204 111z"/>
<path d="M6318 6597 c-41 -19 -69 -48 -89 -92 -70 -151 87 -307 236 -235 122
59 138 223 30 306 -29 22 -50 28 -93 31 -32 1 -69 -3 -84 -10z"/>
<path d="M1629 6340 c-1 -8 -2 -28 -3 -45 -2 -27 -11 -196 -22 -400 -6 -137
-14 -291 -19 -370 -2 -44 -7 -132 -10 -195 -4 -63 -8 -146 -10 -185 -2 -38 -7
-124 -10 -190 -3 -66 -8 -148 -10 -183 -3 -35 -1 -62 3 -60 42 17 1063 532
1067 538 6 10 12 96 31 490 3 69 7 145 9 170 9 155 18 352 19 395 l1 50 -522
0 c-462 0 -523 -1 -524 -15z"/>
<path d="M4325 6350 c-2 -3 -2 -32 0 -65 2 -33 6 -116 10 -185 3 -69 8 -159
10 -200 3 -41 7 -122 10 -180 19 -375 24 -461 29 -469 3 -4 246 -128 540 -275
l536 -268 1 -36 c0 -21 2 -68 4 -107 2 -38 7 -117 10 -175 8 -159 22 -416 24
-437 1 -7 163 69 372 173 325 163 368 187 352 198 -10 7 -184 95 -386 196
-202 101 -370 187 -373 192 -6 9 -8 41 -19 243 -3 66 -8 152 -10 190 -2 39 -7
126 -10 195 -3 69 -8 154 -10 190 -2 36 -7 117 -10 180 -3 63 -8 151 -10 195
-10 170 -17 303 -20 365 -2 36 -4 70 -4 75 -1 11 -1039 16 -1046 5z"/>
<path d="M645 6203 c-49 -13 -90 -61 -103 -121 -18 -77 47 -164 131 -175 79
-10 167 65 167 144 0 38 -15 84 -35 105 -38 39 -109 61 -160 47z"/>
<path d="M3061 5469 c-238 -120 -435 -219 -437 -221 -2 -3 -6 -56 -9 -119 -3
-63 -7 -141 -10 -174 -2 -33 -7 -121 -10 -195 -4 -74 -8 -159 -10 -188 -2 -30
-7 -118 -10 -195 -4 -78 -8 -155 -9 -172 -2 -16 -1 -34 1 -40 2 -7 320 -10
931 -9 510 1 930 2 934 3 4 0 5 22 3 49 -2 26 -7 101 -10 167 -3 66 -8 161
-11 210 -3 50 -7 124 -9 165 -6 134 -17 334 -20 385 -2 28 -4 64 -4 82 -1 32
-1 32 -423 243 -233 116 -432 215 -443 219 -15 5 -131 -48 -454 -210z"/>
<path d="M1146 4510 c-208 -104 -380 -191 -383 -194 -2 -2 163 -87 366 -189
204 -102 372 -183 372 -179 2 9 4 53 13 232 4 80 9 165 11 190 11 166 15 330
8 330 -4 0 -178 -86 -387 -190z"/>
<path d="M655 2796 l0 -1371 1370 -687 c754 -378 1375 -687 1380 -687 13 -1
11 2727 -1 2739 -5 5 -146 78 -314 161 l-305 153 -137 1 c-134 2 -138 2 -139
-19 0 -11 -2 -32 -4 -46 -1 -14 -6 -90 -10 -170 -3 -80 -8 -172 -10 -205 -2
-33 -6 -118 -9 -190 -4 -71 -9 -157 -11 -190 -2 -33 -7 -123 -11 -200 -3 -77
-8 -162 -9 -190 -2 -27 -6 -111 -10 -185 -3 -74 -8 -157 -10 -185 -2 -27 -7
-115 -11 -195 -9 -194 -9 -193 -16 -206 -5 -7 -167 -10 -525 -10 l-518 1 2 40
c2 67 12 274 18 375 9 143 13 222 20 365 4 72 8 159 10 195 2 36 6 119 10 185
3 66 8 149 10 185 2 36 6 124 10 195 3 72 8 164 10 205 2 41 7 129 10 195 3
66 8 149 10 185 11 184 18 344 19 424 l1 88 -381 192 c-210 105 -396 198 -415
207 l-34 16 0 -1371z"/>
<path d="M6297 4144 c-20 -13 -37 -23 -37 -21 0 1 -168 -81 -372 -184 l-373
-187 1 -88 c1 -76 10 -280 19 -419 1 -22 6 -105 9 -185 4 -80 9 -172 11 -205
2 -33 6 -116 9 -185 4 -69 9 -159 11 -200 3 -41 7 -127 10 -190 3 -63 8 -149
10 -190 2 -41 7 -127 10 -190 7 -136 13 -263 20 -380 7 -137 17 -332 19 -370
l1 -35 -523 -1 c-287 0 -522 2 -523 5 0 3 -2 13 -4 21 -1 8 -6 87 -10 175 -4
88 -8 183 -10 210 -3 53 -15 279 -20 380 -2 33 -6 114 -9 180 -4 66 -9 158
-11 205 -3 47 -7 128 -10 180 -3 52 -7 136 -10 185 -7 153 -22 421 -24 441 -1
7 -46 10 -138 9 l-138 -1 -305 -153 c-168 -84 -309 -156 -313 -161 -9 -8 -13
-2728 -4 -2736 3 -3 623 304 1378 682 l1374 686 0 1369 c-1 752 -3 1371 -6
1373 -3 3 -22 -6 -42 -20z"/>
<path d="M3180 3103 c0 -1 72 -38 160 -82 l161 -80 154 77 c85 42 155 79 155
82 0 4 -142 6 -315 6 -173 0 -315 -1 -315 -3z"/>
<path d="M422 1147 c-83 -16 -162 -118 -162 -207 0 -113 98 -210 213 -212 115
-2 217 97 217 211 0 70 -37 134 -112 189 -24 19 -107 29 -156 19z"/>
<path d="M6302 720 c-45 -10 -100 -65 -113 -113 -43 -161 159 -272 273 -151
108 117 -3 299 -160 264z"/>
</g>
</svg>
